<mxfile host="www.draw.io" modified="2019-12-31T05:04:37.070Z" agent="Mozilla/5.0 (Macintosh; Intel Mac OS X 10_14_6) AppleWebKit/605.1.15 (KHTML, like Gecko) Version/13.0.4 Safari/605.1.15" etag="UnEF-i_djJakevzpTh0T" version="12.4.7" type="github">
  <diagram id="2uscCkdZOsteKkZBZel1" name="Page-1">
    <mxGraphModel dx="1363" dy="786" grid="1" gridSize="10" guides="1" tooltips="1" connect="1" arrows="1" fold="1" page="1" pageScale="1" pageWidth="850" pageHeight="1100" math="0" shadow="0">
      <root>
        <mxCell id="0"/>
        <mxCell id="1" parent="0"/>
        <mxCell id="6PmzosYUGS49BsZgMaZS-24" value="" style="ellipse;whiteSpace=wrap;html=1;dashed=1;fillColor=none;rotation=45;" vertex="1" parent="1">
          <mxGeometry x="60" y="350" width="756" height="366.47" as="geometry"/>
        </mxCell>
        <mxCell id="6PmzosYUGS49BsZgMaZS-23" value="" style="ellipse;whiteSpace=wrap;html=1;dashed=1;fillColor=none;" vertex="1" parent="1">
          <mxGeometry x="424" y="580" width="296" height="220" as="geometry"/>
        </mxCell>
        <mxCell id="6PmzosYUGS49BsZgMaZS-21" value="" style="ellipse;whiteSpace=wrap;html=1;dashed=1;fillColor=none;" vertex="1" parent="1">
          <mxGeometry x="200" y="380" width="260" height="200" as="geometry"/>
        </mxCell>
        <mxCell id="6PmzosYUGS49BsZgMaZS-13" style="edgeStyle=orthogonalEdgeStyle;rounded=1;orthogonalLoop=1;jettySize=auto;html=1;strokeWidth=2;" edge="1" parent="1" source="6PmzosYUGS49BsZgMaZS-3" target="6PmzosYUGS49BsZgMaZS-5">
          <mxGeometry relative="1" as="geometry"/>
        </mxCell>
        <mxCell id="6PmzosYUGS49BsZgMaZS-3" value="Test Application" style="outlineConnect=0;dashed=0;verticalLabelPosition=bottom;verticalAlign=top;align=center;html=1;shape=mxgraph.aws3.codedeploy;fillColor=#759C3E;gradientColor=none;fontStyle=1" vertex="1" parent="1">
          <mxGeometry x="260" y="400" width="60" height="61" as="geometry"/>
        </mxCell>
        <mxCell id="6PmzosYUGS49BsZgMaZS-4" value="CodePipeline" style="outlineConnect=0;dashed=0;verticalLabelPosition=bottom;verticalAlign=top;align=center;html=1;shape=mxgraph.aws3.codepipeline;fillColor=#759C3E;gradientColor=none;fontStyle=1" vertex="1" parent="1">
          <mxGeometry x="560" y="280" width="67.5" height="80" as="geometry"/>
        </mxCell>
        <mxCell id="6PmzosYUGS49BsZgMaZS-19" style="edgeStyle=orthogonalEdgeStyle;rounded=1;orthogonalLoop=1;jettySize=auto;html=1;strokeWidth=2;entryX=-0.019;entryY=0.385;entryDx=0;entryDy=0;entryPerimeter=0;" edge="1" parent="1" source="6PmzosYUGS49BsZgMaZS-5" target="6PmzosYUGS49BsZgMaZS-18">
          <mxGeometry relative="1" as="geometry">
            <mxPoint x="460" y="450" as="targetPoint"/>
          </mxGeometry>
        </mxCell>
        <mxCell id="6PmzosYUGS49BsZgMaZS-5" value="&lt;b&gt;Test Instance&lt;/b&gt;" style="outlineConnect=0;dashed=0;verticalLabelPosition=bottom;verticalAlign=top;align=center;html=1;shape=mxgraph.aws3.ec2;fillColor=#F58534;gradientColor=none;" vertex="1" parent="1">
          <mxGeometry x="335" y="480" width="60" height="63" as="geometry"/>
        </mxCell>
        <mxCell id="6PmzosYUGS49BsZgMaZS-16" style="edgeStyle=orthogonalEdgeStyle;rounded=1;orthogonalLoop=1;jettySize=auto;html=1;strokeWidth=2;" edge="1" parent="1" source="6PmzosYUGS49BsZgMaZS-6" target="6PmzosYUGS49BsZgMaZS-7">
          <mxGeometry relative="1" as="geometry"/>
        </mxCell>
        <mxCell id="6PmzosYUGS49BsZgMaZS-6" value="Production&lt;br&gt;Application" style="outlineConnect=0;dashed=0;verticalLabelPosition=bottom;verticalAlign=top;align=center;html=1;shape=mxgraph.aws3.codedeploy;fillColor=#759C3E;gradientColor=none;fontStyle=1" vertex="1" parent="1">
          <mxGeometry x="486" y="600" width="60" height="71" as="geometry"/>
        </mxCell>
        <mxCell id="6PmzosYUGS49BsZgMaZS-7" value="Production Instance" style="outlineConnect=0;dashed=0;verticalLabelPosition=bottom;verticalAlign=top;align=center;html=1;shape=mxgraph.aws3.ec2;fillColor=#F58534;gradientColor=none;fontStyle=1" vertex="1" parent="1">
          <mxGeometry x="586" y="680" width="60" height="64" as="geometry"/>
        </mxCell>
        <mxCell id="6PmzosYUGS49BsZgMaZS-22" style="edgeStyle=orthogonalEdgeStyle;rounded=1;orthogonalLoop=1;jettySize=auto;html=1;entryX=0;entryY=0.5;entryDx=0;entryDy=0;entryPerimeter=0;strokeWidth=2;" edge="1" parent="1" source="6PmzosYUGS49BsZgMaZS-18" target="6PmzosYUGS49BsZgMaZS-6">
          <mxGeometry relative="1" as="geometry"/>
        </mxCell>
        <mxCell id="6PmzosYUGS49BsZgMaZS-18" value="Tester" style="shape=image;imageAspect=0;aspect=fixed;verticalLabelPosition=bottom;verticalAlign=top;image=data:image/png,iVBORw0KGgoAAAANSUhEUgAAAgAAAAIACAMAAADDpiTIAAAAA3NCSVQICAjb4U/gAAAACXBIWXMAAHzLAAB8ywHPZ909AAAAGXRFWHRTb2Z0d2FyZQB3d3cuaW5rc2NhcGUub3Jnm+48GgAAAwBQTFRF////AQACAQACAQACAQACAQACAQACAQACAQACAQACAQACAQACAQACAQACAQACAQACAQACAQACAQACAQACAQACAQACAQACAQACAQACAQACAQACAQACAQACAQACAQACAQACAQACAQACAQACAQACAQACAQACAQACAQACAQACAQACAQACAQACAQACAQACAQACAQACAQACAQACAQACAQACAQACAQACAQACAQACAQACAQACAQACAQACAQACAQACAQACAQACAQACAQACAQACAQACAQACAQACAQACAQACAQACAQACAQACAQACAQACAQACAQACAQACAQACAQACAQACAQACAQACAQACAQACAQACAQACAQACAQACAQACAQACAQACAQACAQACAQACAQACAQACAQACAQACAQACAQACAQACAQACAQACAQACAQACAQACAQACAQACAQACAQACAQACAQACAQACAQACAQACAQACAQACAQACAQACAQACAQACAQACAQACAQACAQACAQACAQACAQACAQACAQACAQACAQACAQACAQACAQACAQACAQACAQACAQACAQACAQACAQACAQACAQACAQACAQACAQACAQACAQACAQACAQACAQACAQACAQACAQACAQACAQACAQACAQACAQACAQACAQACAQACAQACAQACAQACAQACAQACAQACAQACAQACAQACAQACAQACAQACAQACAQACAQACAQACAQACAQACAQACAQACAQACAQACAQACAQACAQACAQACAQACAQACAQACAQACAQACAQACAQACAQACAQACAQACAQACAQACAQACAQACAQACAQACAQACAQACAQACAQACAQACAQACAQACAQACAQACAQACAQACAQACAQACAQACAQACAQACAQACAQACAQACAQACAQACAQACAQACAQACAQACAQACAQACAQACAQACAQACAQACAQACAQACAQACAQACAQACAQACAQACAQACAQACAQACAQACAQACAQACAQACAQACAQACAQACl5/7/AAAAP90Uk5TAAECAwQFBgcICQoLDA0ODxAREhMUFRYXGBkaGxwdHh8gISIjJCUmJygpKissLS4vMDEyMzQ1Njc4OTo7PD0+P0BBQkNERUZHSElKS0xNTk9QUVJTVFVWV1hZWltcXV5fYGFiY2RlZmdoaWprbG1ub3BxcnN0dXZ3eHl6e3x9fn+AgYKDhIWGh4iJiouMjY6PkJGSk5SVlpeYmZqbnJ2en6ChoqOkpaanqKmqq6ytrq+wsbKztLW2t7i5uru8vb6/wMHCw8TFxsfIycrLzM3Oz9DR0tPU1dbX2Nna29zd3t/g4eLj5OXm5+jp6uvs7e7v8PHy8/T19vf4+fr7/P3+6wjZNQAAHrRJREFUeNrtnQlAVNX+x8/AsMqOgKCCqKBQau6paJpa5pZb2qaWWZqv0kyrZ//27D17Ly0r38ts0Zcvl0pRyzIBl5dLpuGauIOAGwiCLCMw9z8gKgN3Zu7MnHPvuXO/H0sZ5t6z3POZ3zn3zL3nEgIAAAAAAADQFjocAsXw8g8wFhdVQACtEZkQ3yY+LsTfs+aVoSj/eMaxjD8vQQAt0Lhf//6tRd85kpKytRAHyKVp+uI+o2CFyp3PhuEouSp+EzdXCTapWD/WG8fKFQd8sy4LEjk3RY/j5WK4TcgU7ODoSBwyl+K+/YKd7EjCUXMZuqQKDpCciCPnEsSsMAoOUflZOI6e+umXLzjM2U44fmrn6QrBCUrH4giqGv0ngpO8iZlaFROSIjjNt744jmol4bhAgT+a40iq9OT/ikCF8z1xLNXI6CqBEuV34WiqjztKBGpcisXxVBsRWQJFDvnjiKoLr18FqqxzY1ZUd7QWAz4fRje9Nt6bcVBVxCyBOo/iqKqHwVX0BSjvjuOqmgmgKwIDzjXDkVUJvwpM+A5HVh2MEBhxJ46tGnA/wkqAbTi4amCywIyhLMqL75vp4nMiilnah9sb6Sfqhjajygx27U9um4gIwDuhJwMZpp4dV05/zIJGo8ncvixTDyj+FRGAa2IyvJimX9CyEGMAnpnCtv1J8AREAJ5xy2Q9X7uvMyIAx/RnPl/fqR0E4JiJKswCXQA9Gl3yYZ7H+aZGRABe6cO+/UmTDugCuKWfGjOBABoXAGMAagTmyzGtWhRShQjAJ71lmVYP6IgugFNuV2U2EIAabVSZDQSgRrwqs4EAGo8AOAugRUi+PPkYfI2IADwi16JuXgHoArgkQJ0ZQQBa+KszIwgAAQC6AOA8HurMCALQolidGUEACACoUKTOjCAAIgCgQqFM+QhXIACXZBvkySfHAAG4xHhSnnyOEQjAJxmqzAYC8PrRRARQG0dVmQ0EoMZOeYYauyEAr2OAXDlySS+AALySpsZMIIDGBcBFofSIPcU+j8rQIkQAXjn9O/s8fqL9nRMEoMgyFWaBLoAijXNZXxZUEGlABOCXvB9Y57CS+jdOEIAmX6g+A+AcuwWmrKNfYgpjAL+Q4JBqgkOm52hdgLu2sEy9qv0RTgRolBhS2+Ymbg18uu3RfAjYMIRh4p9P5qWaSeIR6l70AbdXsesASpsyKLBjg8DL4r8OgQCHlrJL+4McCMA/r5WzSjl/HoEA/JO9kFXKc69wVM2rop3UArQ/IUH5bEYApz0JPxHAQghABDBR+H9s0n3hGgRQB/9iMl337vdcVTJVNEr9itavxnM7/Q5gLatv7RAB6HNtVCbtJA8+KkAA9XBpeAntBK8SCKAiDtD9wF4bfYaoQgC9P9r+OmtfpZnatO3cVdDCM7Jj0PQ3+IbeAPADDqs3SryoHdHwN/D+jlb7f8bj4337ipe1Pxr+Jrq3qDR/5XNc1q69eGkfQLvXYVyp8+1fcA+fdWsmXtwpaPW6dM52tv0zmD+EgOpZAM4Dzdnb1clbeTd1P8apAKUGCCCBc32XO7P7h4MLua1armjE+hxtXp9ZDg8ECifxXK9DomVegwZvQNRnlY40v2F+KNfV2iZa6q1obxESku1ufuPXLTiv1FrRch9Ea4uStMO+9v/5Du6r9IVowXPQ1hYYeVR68+8doIIK/VO06GVoaUvon9glLfinjVPFHdtzxIvvg5a2TJt3s2w1//FXW6ikMlPFK9AUzWx11qXPm9sMFm/82fxKN/mL5Gi4GbtS9NftMQy0hW/P3gnxcb5mv7t6LOPItt0GJYqjd3A/zAU7SunmzabPXbO4EP8A/wBjcVFxUf7xXOWKAwEUQTh7lpdeCQJofFgCASCAIxRVQgDXmJ9wdMeCMAjA5LSsbVxgYIDpT2CA5/mcnFzTnwIuBbgMAajj161Hzx7BDX5ddvZ/v6Rc4q2w4l9vpKAVHST4kY/3Wfne2Lhv3gBvrgq8QbScf6AlHaLz5xKuGyndNJOjawSWiZYxE21pP94TJC8vWLKwBS+l/kC0gMVoTntp+V6eXfcJfNOJj3K/Jl4+D7SoXTRZZf+6cpu5uFfgGfHCRaBN7eERxxYUSudAgYfFi5aARrXj47/W0SuGjR94KV34QeIl64VmlcyjzqwnduA2hUvfTbxcw9CuEolMFpyi7Blly99avFgT0bLSuPuy0zeO/hBOoRwOPzACXwc6xegfg51OY/CB+xSsgZtR1Mq30bZSeIrOouJVDytYB/EQ9gkaVwLP01o9pGK4cpU4IVqib9C6tnnISG39oHJnF2Vx/KFRWCnO4fHfV/Ru/fBK7gEBVEa7NTTX/W704x0QQFX4rAqgml7QprYQQE2835ZygmG/2LM8o/dttFbzFF8FzYgnUVpnCINnSfwqdSVB3VMnqoSq9Ff0NGoyQ7wwoWhja4ScZ/E0kb9Ky7zxjXXsd7agUJUJ4mWJQyNbYz6Tx8kYOkjK/Na3D/spXLcxVLws3dHIVmhhYPNAoQNSTiyeqLPDK6wGgRgFWmUumyc/kXZTJWxU94u66c7n2VbcxUfQypbpaBQYcdH22N6nvO4OjREBFGAGs9Vfwl6wucntZhcRtXVagAIIYC/BY9ml/YLNiwPM16TwclqAimIIYO+JE8N7e/xm2trCfPhxzWkBMBVoN0+xTHySp10CGCCA7HRPZJl62GhEAM4Zwjb5qRCAcwaxTb5PIgTgmrAujDMYx4UAwTo0tTj3sj4yg2UWQHwiwD0ATS3O3awz6BzOQwRAH2CJdqwz0A2CABzjlsg8i8E8zANAAAvE+jLPorcdAlRAAJmR4W7eqBDJAlwjEEBmEmXIox0E4HgaQIY82ssqQFk5BLCDIJeLAJgKtItApbsZL5kECEZbKyZABCKAtruAUPsF0EMA9rjHxsfHt5FDMvcqiQIYIIAsRMZX00qu5TN1wXmIAHwQENemuun9Zc42lAMBvHxLtdzyni1N0T4+vokyuYdyMAYgIZoUwCsyKioqtk18C3clSxHIhQDZ2ml2fZOoWvi4KzqICwFcvtndIiJrmz2Ms+UQAiEAk37dz4S/Xw0Bps98hDuvJUUEsEmLOwP9A/z9fY2VlVW1/zX4192vltpGV89DECRHAIMmBWjU79574l26c5I3AhRXeKhJgGZvPeJJXBz7BXBqEFOgoggQNO/44y7f/g4MAp0SQEVTgdNOvehNXB95uwD1COC24DltzEtYiQA6D+0K4LVsrDba31oEEL8tQBMC+Cf300j7W4sAFgTQwhjgc820P2mklyiAk/MAr/tU/50lLkAjz2tcHZQnHyDaITBfli7g+ZpQs3O5+Lsh53k6JIkfaqj9SZC9AjDoAvjqA7xW+GhJgEA5xwCCGgQY305L7U8iIUC9GYBZmmp/EgMBzLm/jbYEiIYA5rxIIAA7AQqNvAvQ4U6NCSC1CzBQEUAo5F2AAQQRgGEE4H8q8G6tCRCphwB10PfRmgDuTSFAHbr5aU0Ay4MATQrQXnPtb3kQoEkBwiDATbzkEyDAHQJougvQBUMA3rsAA0sB+OkDGkMAJSIAPwJ4QABxAYRKbQiQrz0B/EKkCHDrmi0I4Gq0hADaFuA2OQXg/eGReRoUIFFOASqL+BbgJCKALQH0TglALtd5QEzJ5YLLNRQc4eVg/E/QQQAxAQy0BNh+7HqTV/91jb+DkfdnouYEiPG7KmMEmMD50diuPQF0CXtkFIAHGt8Z1aQav4L8y5fzj/12oOLWe9umaHAQIEGAClcRwL3boEFdbgxka2f+y//4LXVjbQ03lvpqTwALkUH816oWIGDxQJETDu8ePaZf/PrLQ9U/Fyx9GgJYxU29Ang8NGicpRPO8JkH99Q8TftDAQKItJbOBQS4K+PVE9be7/JtWgdCMjZqToBofy1EAI/5aWSgjQL03fdpKHlfe6NACWc+qo8AEanPr+ieM9qW3U/tSUz9L/oAa62lTgESf/Ma8vAlr/E2N4zdcc+z5yGAFdR5FnCktek0z215tO0tA3+Y9vQaCOByg0BT+3f+ebQkw/9dshwCuFIEmDkw84wQ2yJW6qK/bv/tHcnLHWJCdnMZcmkWUCR9EKgyARp1jf+7vRf6NV5673dKGyDkHq/mZPmFcDlCwE7prSW7AIn3OJTXiuqhXPiSwY7cctBt0rD1ihlwvqblT9x4jM7B/koJwEsX0G2BQ3ntMglw1zcR66tGObDz9IXDvh4pd8vnHatp+WLz38ojgB2DQMcE8FWiC9AvJ/23pDqyZ/SYFaMe+ChCpnIW1HzmjxeKvnmQt1GgQwL4Xu+GDfIKMKTplC2t+jq064wVZPXm+Y8x7eUv5ubm5pj+z7J6Jeoh4goRoPY6sFZ27+gfFub4qm3NyR/kIccu8erieY0UPL5s5iA99Y97bm27n6uUtP1hOS5SiwoqZBsBCq7VXF3Qt3+KHTvpkkaNjHGmWkGmkOPgBT7usRmmv9PSIh6dSGXZwJIbzZ5bZu+ep1rJEAISd7A9DTTs7VFzWDdvmH1U8gnc1yPI4SUFBR3GOTrgbE5KSJyDR6R1Rs0/F95/v1O/uLjWze35GFZdNVFc5//C3CuOt81BOQS4bQfj08BVPa7/O3RwbtbZrGyzwcCZn0U/g1u6LJl7xvTDVMcE0JEBQ7NPk5MO3upxq8H37TP95d2qiZe3l+k/79p/9MJNjKb/K+u2eBnVtjk4grNRoEN4nREsslZ0jzHCG9d/mCo4xK4zwsVBxAUYK8jALyIZr6m7QbqTEcAw/Ts7Z2Smlcy//kPGUrtP/5pFN/PodGrZixdcQQDuzgMd5MEK+yLA5Q3O5OYWoScugr5cjhAQbCMC7L91aB2sx4qxF+3ZPDD4tDNHzXih0lUEqPxToRBA+4KQNS1ftWMsHEMyCVB4KoiuAKTknegRHx2WfA5fjKZXdhBA9buA6xQlJxPfkKCgILNEzkEANY0CnR1clZZmS9ksnFxE03MkQJ0I8G9Zat2ePD1GpQ12di7d9LILg9gXOiI0X+IgUC/X3ZOj1PqJ3U9ZAHIoSY4QsI35IBCoqw9gcFUwcIFRIATQpACIAAqi0EyQgAjACYXZMmQSJnWdbAiglT4Ag0AMAhABND0IQATQVARIxCCQW/6sVDwCuEMABTEclyGTxvXvQjVbyNUPAmhuFFgMAbQ9CjRbQdhPBwG0FgHMBND5QgBNdwHEHwIoyKkSpSPArUEABFAA4agMmYQ0QQTgFjnOA+uHgKsQAAKgC9CwAOgCEAEQARABEAG4IL9AhkyCohABEAJuUSIgAmhaAGMpBMAg4CahEEBzAlyq+yIcAri+APWuCjO7PzsMAri+AIGREIBXCvPkyKWFZQFC3SCAopyQI5NoywK4h0AA1+8DrAhwsw+AABAAaFGAcAigKFnyC3ABEYAjZHmcaQy6AG0LEOxX91VJKboAfigtkiMXK4MARAAthAAIAAEsCYAuQOMCNIMAynJO/tMAs8WpAgMhgNYiQJbYexBA4wLoP7Wy/5hQVzvsX16ze5ezKhagqZvRogC13YN+qpX973Q5AWYWaioCeARdRheg5UEgCaz7ouwSBOCHS1Vy5BJkeRAQAwEUxXhJ9ghgLgAigBYGAVYEiNJDANcXwEoX4NYMAiiJrlThCFDbB+jRFEoQ+dgTrRSOALWjQAggP+6DJw+W6bgjAvBHq0mPRcmWmXkEuGDwggDK4jVqcj+djPmZRwDhbGt0AUrSfvKjwfLmaB4BSFZrRADlPvzjn+oqe6aBxPIgAALISaMpL0QpkG2QFQEa1TxfGALI0g7PTlfmi1VrEYBEQwB5CJ/5dIBCWVsVIOYPCCADzWdP9lEsc0+PChsTARCALXEvj/dQMv8KAgGUPO+b84CyX7YYzF+W5TWuPxGAL4PY0TZ5/ziFj289AUTOAyEAs/HX/APDFS9Eeb3XmegCZMJt8jthHBTDagSI8DIgAjCiz95PeWh/6wLomqMLYEP0yq138FGS88TqRAC6ABb4vjTbh5eyHLcqQDQEYMBD85rzUxgIIDedFvbiqTj1BTC/JCQGYwDKeL+/h6v2byCAkF0/AkAAinTeO5Oz49lgRdosCMAM/eu7Ejkr0pEGz6g1nwnSYQxAj4RlXbgr02ZiNQJ4hV9ABKCEbsY+/tqf/GJdgOpRIASgQkzqAm/+SlWxBQLIw6SDfXks1u6rtgXAGMB5IpYM5bNgPzX8VaagQwSgzP2HOW3/yq8a/q78IroAyqO/N9bwupLSuhyRX56BAFTx+/51Ha9lW0QgAGta7RrBbdkyUsR+azYTFBgIAZxi4G+38Vu4T4jNCGAKARDACWZuDOG3cKcWE5sRwCQATgMdxnvxeJ6LN9sgKQJAAEdpuqYrz8VL+55IiAAt0AU4Ss/fuW5/4/MW3ijJwxiABpPTmnBdvoX7Lb2TCQEo8MZnnlyX7/eXLL51BmMAp9HNn8F3AQvHWl4W3ywChPtAAPtxXzyJ8xJOOk2kRQDSDALYjcfyBzgv4bw1Vt40Pw2IggD24vPdfZyXcNHL1t69CAGcImB9H85LuOQZq2/nQQBnCP2pC+clXDZFsEOApjgNtIuobby3/8JJRusbXDF7VEkUBLCH2O2JfBfQMGm6rUfRCPnoAhwlYXMU3wU8N3K37Y3yw+tOBCACSKfVFs7bf1MXCe1vPgjwggCSifg5nOvy5U+8N1fSdnVfeKILkIr/j624Lt+K6RelbWgWATwQASTiuaYTz8Xb3v8hie2PCOAQuqX9OS7dtjdTpW/sBgEcYMGD/J76rVu0xZ7tgyGA/bw0ndeS7Vi2stC+PcwEqIQAUpj4dy6LVbzllx9P2r2X2ZXMBRBAAoOX8FYiY25W1tGUXZWO7BsMAeyk+2pFj9KZ1JS9vkE3KMnKyszKyql0PD0IYCdtf/BVLO+LaSkppyinCQHsI2iDQnf/Fm9NSTkkUE/WPQAC2DUBsEyRCcDTq5L3VDJJOdbsVTYEsMErw+TPM3P1qj3sRrRmrw5AAOvc+6bcOZ79duVulumbL2eyHwJYpcV/5f2yJHf1qp0C0xz87qr7ynAMAljD+zs57/+uWPOvrQLrTAaa3dJ0GDOBVvlExm8AcxYvPi9DNuY9QDpuDbPGk/LdAZS6KNmuQb+Hl3fNH/eSouLiMun7eQ0xe7kRAlih60cyZVS0dNFRKdsFRkVWExXZxM9saFJ51WTBhRMmztq6JHRWRN1X5T9BAMs0/tZLlnwOf/R1iY1N3GIS2pr+WJqR0gcF1f507cyJE8d3plvUIGaO2cvNVyGARdy/iZYjm4zXV1kd+Hl17dWxbbzUhxB5xsdXR5T/bd32u1iPErbefFZ7DSFWF7lL7+BqrRpcKHnTd16RoTyn3lxuJWiH9kzq1cXBMFSyY+u2XeZPDibRG9qZvTY0y7OeSLrgagRJPoB3VrEvTdaTlgNwqwmLjxidTP/ykuF1nhXs905pvferV5JEBLAwA5DehnVZzr37mfhCXvo7kpJ60VqBJmPHbyVVJuL6JvnXn3eIy8Rq4ZZ4m3X7X5q3SPTsrePwPt0bUcynTZvHLb21rHqpAAggSo+ZbNOv+ui1YpHBfq+RI1vIVseKvxEIYAGfr9h+BbB7anrDAXz/kffLeuvRqychgMUzgHiWqRfMWVz/Fm6/+0YOCZC3jpveIxDAAj1nsEz9P7Pq3cMTOnzkQNmfOHRhggABLHUAXzLsAI5OSzN73Wjs+D7u8tex7MELBAJYYC67DqBs7j/MVvDr8cQ4PyWqWDR0O4EAFujF7i6g/Q/W/dInYvwTbemk+2VedPPoSOmBJG/QXgIB5O8APp51a+ZHf98TQ+w6+JfSfS0+mHrdWtNf7lHRzWO7J0m4hnnv+D8JBLDEu3GMEr48Kfnmz/GTJkqf6jOeTDeRS2ZYfzJ51dmzpr91CUm9e8dY/fjP+bzOSQgEqMcdzzFKePvDNx/dPmD2PRJ3Eg7tTE8/UGJHNsKRI4tJs953jbQwp1C16LVCyYlp8cugNDYZV715o4fWP7RP4j6HPx7duG7RZljcckTDerj3//Rww++z/ni9/hQ3IoA5I/sySTbnka21Z32Tn4+RskNGWtqWi87kWJWSQhp16Ny5U0JtE5flnNiYnNlgOwhghuc/mCT706PX12WJeHZasO2tr25Yt+UcjWxLduwwDWqbevv4eF7KzhffBgKY8RyT+8A+/UvNVR/xsybYvrqjeP3qn8qpTj2csPo2BKhL2P8xSFSYU7O8RPOFw22eX15Zv/png7xVhgB1eTuQfpqGx1ZU/9NvZZiNDQvXrd50TfYqQ4A6tJtMP82CEduq/+n4i/V5uoLk1ZuvKVFnCFCHBfS/lTk9+Prk7z+sJZ2/9tuUCoXqDAFuMZz+UoB7hl4/l+tuOemrK1elVipXaQhwE49/Uk9y/YOl13+wuMr8kUX/KVK01hDgJs9Q/xIgecyNj7b45E/lGvuWeIQALGn8Gu0Ufxp7M7SLTerlLP7snPLVxmLRN5gdRDnB1JG3hvU/NHx3TIu3OGh/RIAbhEyjnOD24XUm9DL3mD1q+srSfx3lpN4QoJbnKF+atXuI2Ze4k/fcWpkjZ/7iq9zUG13AdfwpXwawb5D5jR8HRl+p/en45Jbz+Wl/RIBa/hJMNbmD9xTW+82G9g8OTPI+vW39GiNXFYcANfg8TzW5YwMafvma9d573iG53NUcXUANT1G9KatwmPi1HOX8tT8EqMFzNs3UqsYdU0/VIUA1jzWlOqOwiUAAVaF/mWZqXy0gEEBdPBRLMbGdUwkEUBducygmlj3KAAFUxqi29NIqG3GeQACVQTMATNpLIIDK6NWRXloLVxAIoDaeppfU0ZcJBFAbjcdQS6pyQhkEUB2P01sS+t09BAKoDd0UakntfZtAANUxkNrdgOXjKyGAloeAc/4kEEB1NKX2WMAtHxAIoD6epHU3WNFjAgRQH/onaaX0UiaBAOpjeBSlhA58RiCACqH21e2MKgigQloPoJTQ92kEAqiQKTo66RhmEQigxso/QimhBachgBpJiqSTzrm5BAKokbGU0plzFQKosu6j6aTz+1ICAdRIb0rP5psuQAAt9wAbdhAIoOUe4F0CAVTJXRFUktm6EwJougf4G4EAqsR9FJVk9v0MAdRJ33AEAE0L8ACVVDK+hwCa7gHmGSGAOukXRiOVs18TCKDlHuCfFRBApdxHI5ErSwgEUCdtm9NI5ZtSCKBS7qGSyhcEAmhZgIN7IIBK8eyLAKBpAXo2opDIta8hgKZ7gOQ8CKBpAVyhB9CoAKE01oXK3gQB1MoAGtX+yggBtNwDCF8SCKBlAXaeggBqJaEZhUTWEQig6XOA9RBA0wKcPAIB1IouCT2ApgVoG4AeQNMCdKeQRuF2CKBaulFI48dKCKBpAVylB9CiAN7tnU+jYiMEUC0dPZxPY9sVCKDpMeAGAgE0PQTYBgE0HQFK9kMA1dK4pfNp7K6CAKqlK4U0fiUQQNNjwB0QQNNjQONOCKBpAQ5fgQCqpVUoegBNC0BhHtiVxoDaE6AtBIAATnL+FATQtAA7CQTQtAAHIYB6iaJwPeARCKDtMSAE0LYAVccggKYFOGmAAOolAT0AIgAE0K4AfhTuCz4MAdRLG5wEaFsACj2AMQMCaHoMeLoMAmAM6DrotSUAhSuC0xkWL7BTex/L7/ay+M4oi2Ln7T1UAQFuQeExIcy+CwyaOyBO59iu4628Z9i/bJGVZ9tazTG9AwH1EEIL2CQ8aElTVmVOezwTYwBaZDBq/483Mmt/0u/gKAhAC0Y9wKS/sCy0/1cxEIASbK4Ijl7AttT+X+ggAM8R4PMAxsW+exoEoMIJJtMAUQOYF3wiBKim2NkEFgositWFfc3be0AAE3ud3P8KmyXCZRDAqx0EMOHsY76WXGVSrE4yVL0TBHBegKqP2BSrSIaqF0EAE78714WvzWRULDmqDgFMFJx0Zu+Kt4lqBSg4BQGq+cWZnd9itTbUH0alAoDmBJjvxKHe/TdmZ6fzWdfb+DYEqOHEdw7vWjaB3dpgr/7JuN4fbocA15nn8J4vMbwjqHwi24XnMl4hEOA6ezc7uOOGj5men465xDD1XUPLIMAN3nDss7bpAYFpsdbe9j2rpA0vJ52w+KbGrggKLiRk9nuOnD0ML2deuGEDutzhSzvRC3t/X2ntCywNCkBWjrV7v5Rh8lwM7t7ah26Cedk2NtDYRaE1TEq83c49UmVqf1Il+10nWrweoGREnn3n0PMGlbnswdDkBSEnu9ozpXe2/8sVBAK4FGd6rpK87cr2W1z5UGj0krDScX+VNiec+eiDhQQCuCB/75lqe6NTT8Ytd/HjoN2LQnf377/L+hbHH2uzpIJAAJcltcewLRanBS8uGZqwtNL1D4LViaBPWrladUeX1PtF6JD7723U8DRh7dodRm18CnRE83j3SWgZ2zK2ehJWqCw4Us0F7dQeAtzA31hRacRhAAAAAAAAALg6/w8+zN2Sw44JrgAAAABJRU5ErkJggg==;fontStyle=1" vertex="1" parent="1">
          <mxGeometry x="478" y="428" width="52" height="52" as="geometry"/>
        </mxCell>
        <mxCell id="6PmzosYUGS49BsZgMaZS-37" style="edgeStyle=orthogonalEdgeStyle;rounded=1;orthogonalLoop=1;jettySize=auto;html=1;entryX=0.5;entryY=0;entryDx=0;entryDy=0;entryPerimeter=0;strokeWidth=2;" edge="1" parent="1" source="6PmzosYUGS49BsZgMaZS-1" target="6PmzosYUGS49BsZgMaZS-29">
          <mxGeometry relative="1" as="geometry"/>
        </mxCell>
        <mxCell id="6PmzosYUGS49BsZgMaZS-1" value="&lt;b&gt;Bitbucket&lt;/b&gt;" style="dashed=0;outlineConnect=0;html=1;align=center;labelPosition=center;verticalLabelPosition=bottom;verticalAlign=top;shape=mxgraph.webicons.bitbucket;gradientColor=#DFDEDE" vertex="1" parent="1">
          <mxGeometry x="40" y="160" width="102.4" height="100" as="geometry"/>
        </mxCell>
        <mxCell id="6PmzosYUGS49BsZgMaZS-38" style="edgeStyle=orthogonalEdgeStyle;rounded=1;orthogonalLoop=1;jettySize=auto;html=1;entryX=0.5;entryY=0;entryDx=0;entryDy=0;entryPerimeter=0;strokeWidth=2;" edge="1" parent="1" source="6PmzosYUGS49BsZgMaZS-29" target="6PmzosYUGS49BsZgMaZS-3">
          <mxGeometry relative="1" as="geometry"/>
        </mxCell>
        <mxCell id="6PmzosYUGS49BsZgMaZS-29" value="Codebuild" style="outlineConnect=0;dashed=0;verticalLabelPosition=bottom;verticalAlign=top;align=center;html=1;shape=mxgraph.aws3.codebuild;fillColor=#759C3E;gradientColor=none;fontStyle=1" vertex="1" parent="1">
          <mxGeometry x="180" y="280" width="66.5" height="80" as="geometry"/>
        </mxCell>
      </root>
    </mxGraphModel>
  </diagram>
</mxfile>
